<?xml version="1.0" encoding="UTF-8"?>
<svg id="Layer_1" data-name="Layer 1" xmlns="http://www.w3.org/2000/svg" viewBox="0 0 29 29">
  <defs>
    <style>
      .cls-1 {
        fill: #fff;
      }
    </style>
  </defs>
  <path class="cls-1" d="M26.5,7H10.5c-.83,0-1.5-.67-1.5-1.5s.67-1.5,1.5-1.5h16c.83,0,1.5.67,1.5,1.5s-.67,1.5-1.5,1.5ZM28,14.5c0-.83-.67-1.5-1.5-1.5H2.5c-.83,0-1.5.67-1.5,1.5s.67,1.5,1.5,1.5h24c.83,0,1.5-.67,1.5-1.5ZM28,23.5c0-.83-.67-1.5-1.5-1.5H10.5c-.83,0-1.5.67-1.5,1.5s.67,1.5,1.5,1.5h16c.83,0,1.5-.67,1.5-1.5Z"/>
</svg>